<mxfile host="app.diagrams.net" agent="Mozilla/5.0 (Windows NT 10.0; Win64; x64; rv:138.0) Gecko/20100101 Firefox/138.0" version="26.2.14">
  <diagram name="Page-1" id="1D3w2-HprPt9uYg2HA9X">
    <mxGraphModel dx="1426" dy="871" grid="1" gridSize="10" guides="1" tooltips="1" connect="1" arrows="1" fold="1" page="1" pageScale="1" pageWidth="3300" pageHeight="4681" math="0" shadow="0">
      <root>
        <mxCell id="0" />
        <mxCell id="1" parent="0" />
        <mxCell id="WHZcsgohCzqKjQSpTnol-35" value="2b Predict" style="text;html=1;align=center;verticalAlign=top;whiteSpace=wrap;rounded=0;dashed=1;fillColor=#f5f5f5;fontColor=#333333;strokeColor=#666666;strokeWidth=2;horizontal=1;" name="text" vertex="1" parent="1">
          <mxGeometry x="1040" y="1020" width="330" height="150" as="geometry" />
        </mxCell>
        <mxCell id="WHZcsgohCzqKjQSpTnol-34" value="1d Fuzzy Analytic Hierarchy" style="text;html=1;align=left;verticalAlign=top;whiteSpace=wrap;rounded=0;dashed=1;fillColor=#f5f5f5;fontColor=#333333;strokeColor=#666666;strokeWidth=2;horizontal=1;" name="text" vertex="1" parent="1">
          <mxGeometry x="1240" y="630" width="200" height="310" as="geometry" />
        </mxCell>
        <mxCell id="WHZcsgohCzqKjQSpTnol-33" value="1a Train ANN" style="text;html=1;align=center;verticalAlign=top;whiteSpace=wrap;rounded=0;dashed=1;fillColor=#f5f5f5;fontColor=#333333;strokeColor=#666666;strokeWidth=2;horizontal=1;" name="text" vertex="1" parent="1">
          <mxGeometry x="870" y="790" width="360" height="220" as="geometry" />
        </mxCell>
        <mxCell id="WHZcsgohCzqKjQSpTnol-32" value="2a Pairwise Comparison" style="text;html=1;align=left;verticalAlign=top;whiteSpace=wrap;rounded=0;dashed=1;fillColor=#f5f5f5;fontColor=#333333;strokeColor=#666666;strokeWidth=2;horizontal=1;" name="text" vertex="1" parent="1">
          <mxGeometry x="870" y="560" width="360" height="220" as="geometry" />
        </mxCell>
        <mxCell id="WHZcsgohCzqKjQSpTnol-31" value="1c Expert Knowledge" style="text;html=1;align=left;verticalAlign=top;whiteSpace=wrap;rounded=0;dashed=1;fillColor=#f5f5f5;fontColor=#333333;strokeColor=#666666;strokeWidth=2;horizontal=1;" name="text" vertex="1" parent="1">
          <mxGeometry x="760" y="400" width="330" height="150" as="geometry" />
        </mxCell>
        <mxCell id="WHZcsgohCzqKjQSpTnol-3" style="edgeStyle=orthogonalEdgeStyle;rounded=0;orthogonalLoop=1;jettySize=auto;html=1;entryX=0;entryY=0.5;entryDx=0;entryDy=0;" edge="1" parent="1" source="WHZcsgohCzqKjQSpTnol-1" target="WHZcsgohCzqKjQSpTnol-2">
          <mxGeometry relative="1" as="geometry" />
        </mxCell>
        <mxCell id="WHZcsgohCzqKjQSpTnol-1" value="actor&#xa;Experienced&#xa;Cardiac Clinicians" style="triangle;fillColor=#ffe6cc;strokeColor=#d79b00;" name="actor" vertex="1" parent="1">
          <mxGeometry x="700" y="430" width="100" height="50" as="geometry" />
        </mxCell>
        <mxCell id="WHZcsgohCzqKjQSpTnol-5" style="edgeStyle=orthogonalEdgeStyle;rounded=0;orthogonalLoop=1;jettySize=auto;html=1;entryX=0.5;entryY=0;entryDx=0;entryDy=0;" edge="1" parent="1" source="WHZcsgohCzqKjQSpTnol-2" target="WHZcsgohCzqKjQSpTnol-4">
          <mxGeometry relative="1" as="geometry" />
        </mxCell>
        <mxCell id="WHZcsgohCzqKjQSpTnol-2" value="generate:engineer" style="rounded=1;whiteSpace=wrap;html=1;arcSize=50;fillColor=#e1d5e7;strokeColor=#9673a6;" name="generate:engineer" vertex="1" parent="1">
          <mxGeometry x="880" y="430" width="100" height="50" as="geometry" />
        </mxCell>
        <mxCell id="WHZcsgohCzqKjQSpTnol-4" value="model:semantic" style="shape=hexagon;perimeter=hexagonPerimeter2;fillColor=#b0e3e6;strokeColor=#0e8088;" name="model" vertex="1" parent="1">
          <mxGeometry x="1000" y="530" width="120" height="50" as="geometry" />
        </mxCell>
        <mxCell id="WHZcsgohCzqKjQSpTnol-14" style="edgeStyle=orthogonalEdgeStyle;rounded=0;orthogonalLoop=1;jettySize=auto;html=1;exitX=1;exitY=0.5;exitDx=0;exitDy=0;entryX=0;entryY=0.5;entryDx=0;entryDy=0;" edge="1" parent="1" source="WHZcsgohCzqKjQSpTnol-6" target="WHZcsgohCzqKjQSpTnol-13">
          <mxGeometry relative="1" as="geometry" />
        </mxCell>
        <mxCell id="WHZcsgohCzqKjQSpTnol-6" value="transform:embed" style="rounded=1;whiteSpace=wrap;html=1;arcSize=50;fillColor=#f8cecc;strokeColor=#b85450;" name="transform" vertex="1" parent="1">
          <mxGeometry x="1010" y="660" width="100" height="50" as="geometry" />
        </mxCell>
        <mxCell id="WHZcsgohCzqKjQSpTnol-8" value="&lt;div&gt;error&lt;/div&gt;&lt;div&gt;&amp;lt;--&lt;/div&gt;" style="text;html=1;align=center;verticalAlign=middle;whiteSpace=wrap;rounded=0;dashed=1;fillColor=#f5f5f5;fontColor=#333333;strokeColor=#666666;strokeWidth=2;horizontal=1;" name="text" vertex="1" parent="1">
          <mxGeometry x="1110" y="870" width="80" height="30" as="geometry" />
        </mxCell>
        <mxCell id="WHZcsgohCzqKjQSpTnol-10" style="edgeStyle=orthogonalEdgeStyle;rounded=0;orthogonalLoop=1;jettySize=auto;html=1;exitX=0.5;exitY=0;exitDx=0;exitDy=0;entryX=0;entryY=0.5;entryDx=0;entryDy=0;" edge="1" parent="1" source="WHZcsgohCzqKjQSpTnol-9" target="WHZcsgohCzqKjQSpTnol-6">
          <mxGeometry relative="1" as="geometry" />
        </mxCell>
        <mxCell id="WHZcsgohCzqKjQSpTnol-23" style="edgeStyle=orthogonalEdgeStyle;rounded=0;orthogonalLoop=1;jettySize=auto;html=1;exitX=0.5;exitY=1;exitDx=0;exitDy=0;entryX=0;entryY=0.5;entryDx=0;entryDy=0;" edge="1" parent="1" source="WHZcsgohCzqKjQSpTnol-9" target="WHZcsgohCzqKjQSpTnol-20">
          <mxGeometry relative="1" as="geometry" />
        </mxCell>
        <mxCell id="WHZcsgohCzqKjQSpTnol-9" value="data&#xa;Patient Data" style="rectangle;fillColor=#fff2cc;strokeColor=#d6b656;" name="data" vertex="1" parent="1">
          <mxGeometry x="880" y="760" width="100" height="50" as="geometry" />
        </mxCell>
        <mxCell id="WHZcsgohCzqKjQSpTnol-17" style="edgeStyle=orthogonalEdgeStyle;rounded=0;orthogonalLoop=1;jettySize=auto;html=1;entryX=0.5;entryY=0;entryDx=0;entryDy=0;" edge="1" parent="1" source="WHZcsgohCzqKjQSpTnol-13" target="WHZcsgohCzqKjQSpTnol-16">
          <mxGeometry relative="1" as="geometry" />
        </mxCell>
        <mxCell id="WHZcsgohCzqKjQSpTnol-13" value="data:numeric&#xa;Fuzzy Numbers" style="rectangle;fillColor=#fff2cc;strokeColor=#d6b656;" name="data" vertex="1" parent="1">
          <mxGeometry x="1190" y="660" width="100" height="50" as="geometry" />
        </mxCell>
        <mxCell id="WHZcsgohCzqKjQSpTnol-19" style="edgeStyle=orthogonalEdgeStyle;rounded=0;orthogonalLoop=1;jettySize=auto;html=1;exitX=0.5;exitY=1;exitDx=0;exitDy=0;entryX=1;entryY=0.5;entryDx=0;entryDy=0;" edge="1" parent="1" source="WHZcsgohCzqKjQSpTnol-16" target="WHZcsgohCzqKjQSpTnol-18">
          <mxGeometry relative="1" as="geometry" />
        </mxCell>
        <mxCell id="WHZcsgohCzqKjQSpTnol-16" value="transform:embed" style="rounded=1;whiteSpace=wrap;html=1;arcSize=50;fillColor=#f8cecc;strokeColor=#b85450;" name="transform" vertex="1" parent="1">
          <mxGeometry x="1320" y="760" width="100" height="50" as="geometry" />
        </mxCell>
        <mxCell id="WHZcsgohCzqKjQSpTnol-18" value="data:numeric&#xa;Local and Global&#xa;Weights" style="rectangle;fillColor=#fff2cc;strokeColor=#d6b656;" name="data" vertex="1" parent="1">
          <mxGeometry x="1190" y="860" width="100" height="50" as="geometry" />
        </mxCell>
        <mxCell id="WHZcsgohCzqKjQSpTnol-26" style="edgeStyle=orthogonalEdgeStyle;rounded=0;orthogonalLoop=1;jettySize=auto;html=1;exitX=0.5;exitY=1;exitDx=0;exitDy=0;entryX=0.5;entryY=0;entryDx=0;entryDy=0;" edge="1" parent="1" source="WHZcsgohCzqKjQSpTnol-20" target="WHZcsgohCzqKjQSpTnol-25">
          <mxGeometry relative="1" as="geometry" />
        </mxCell>
        <mxCell id="WHZcsgohCzqKjQSpTnol-20" value="generate:train" style="rounded=1;whiteSpace=wrap;html=1;arcSize=50;fillColor=#e1d5e7;strokeColor=#9673a6;" name="generate:train" vertex="1" parent="1">
          <mxGeometry x="1010" y="860" width="100" height="50" as="geometry" />
        </mxCell>
        <mxCell id="WHZcsgohCzqKjQSpTnol-24" value="&lt;div&gt;error&lt;/div&gt;&lt;div&gt;&amp;lt;--&lt;/div&gt;" style="text;html=1;align=center;verticalAlign=middle;whiteSpace=wrap;rounded=0;dashed=1;fillColor=#f5f5f5;fontColor=#333333;strokeColor=#666666;strokeWidth=2;horizontal=0;" name="text" vertex="1" parent="1">
          <mxGeometry x="1045" y="580" width="30" height="80" as="geometry" />
        </mxCell>
        <mxCell id="WHZcsgohCzqKjQSpTnol-28" style="edgeStyle=orthogonalEdgeStyle;rounded=0;orthogonalLoop=1;jettySize=auto;html=1;exitX=0.5;exitY=1;exitDx=0;exitDy=0;entryX=0;entryY=0.5;entryDx=0;entryDy=0;" edge="1" parent="1" source="WHZcsgohCzqKjQSpTnol-25" target="WHZcsgohCzqKjQSpTnol-27">
          <mxGeometry relative="1" as="geometry" />
        </mxCell>
        <mxCell id="WHZcsgohCzqKjQSpTnol-25" value="model:static&#xa;ANN" style="shape=hexagon;perimeter=hexagonPerimeter2;fillColor=#b0e3e6;strokeColor=#0e8088;" name="model" vertex="1" parent="1">
          <mxGeometry x="1000" y="990" width="120" height="50" as="geometry" />
        </mxCell>
        <mxCell id="WHZcsgohCzqKjQSpTnol-30" style="edgeStyle=orthogonalEdgeStyle;rounded=0;orthogonalLoop=1;jettySize=auto;html=1;entryX=0;entryY=0.5;entryDx=0;entryDy=0;" edge="1" parent="1" source="WHZcsgohCzqKjQSpTnol-27" target="WHZcsgohCzqKjQSpTnol-29">
          <mxGeometry relative="1" as="geometry" />
        </mxCell>
        <mxCell id="WHZcsgohCzqKjQSpTnol-27" value="infer:deduce" style="rounded=1;whiteSpace=wrap;html=1;arcSize=50;fillColor=#bac8d3;strokeColor=#23445d;" name="infer:deduce" vertex="1" parent="1">
          <mxGeometry x="1140" y="1090" width="100" height="50" as="geometry" />
        </mxCell>
        <mxCell id="WHZcsgohCzqKjQSpTnol-29" value="symbol&#xa;Heart Failure Risk" style="rectangle;fillColor=#dae8fc;strokeColor=#6c8ebf;" name="symbol" vertex="1" parent="1">
          <mxGeometry x="1320" y="1090" width="100" height="50" as="geometry" />
        </mxCell>
      </root>
    </mxGraphModel>
  </diagram>
</mxfile>
